<?xml version="1.0" encoding="UTF-8" standalone="no"?>
<!DOCTYPE svg PUBLIC "-//W3C//DTD SVG 1.1//EN" "http://www.w3.org/Graphics/SVG/1.1/DTD/svg11.dtd">
<svg width="100%" height="100%" viewBox="0 0 1581 1888" version="1.1" xmlns="http://www.w3.org/2000/svg" xmlns:xlink="http://www.w3.org/1999/xlink" xml:space="preserve" xmlns:serif="http://www.serif.com/" style="fill-rule:evenodd;clip-rule:evenodd;stroke-linejoin:round;stroke-miterlimit:2;">
    <g transform="matrix(4.16667,0,0,4.16667,-449.975,-1890.59)">
        <g>
            <g transform="matrix(1,0,0,1,0,494.184)">
                <rect x="107.994" y="123.494" width="13.467" height="100.718" style="fill:rgb(35,31,32);"/>
            </g>
            <g transform="matrix(1,0,0,1,161.999,669.718)">
                <path d="M0,-3.362L0,-52.04L13.465,-52.04L13.465,48.678L0,48.678L0,28.619L-14.448,-17.25L-14.448,48.678L-27.915,48.678L-27.915,-52.04L-14.448,-52.04L0,-3.362Z" style="fill:rgb(35,31,32);fill-rule:nonzero;"/>
            </g>
            <g transform="matrix(1,0,0,1,209.55,706.191)">
                <path d="M0,-76.308L0,12.205L-13.467,12.205L-13.467,-76.308L-26.372,-76.308L-26.372,-88.513L12.905,-88.513L12.905,-76.308L0,-76.308Z" style="fill:rgb(35,31,32);fill-rule:nonzero;"/>
            </g>
            <g transform="matrix(1,0,0,1,273.934,718.396)">
                <path d="M0,-100.718L0,-19.077C0,-6.359 -5.424,0 -16.271,0L-27.634,0C-38.39,0 -43.765,-6.404 -43.765,-19.218L-43.765,-100.718L-30.3,-100.718L-30.3,-18.797C-30.3,-14.4 -28.334,-12.203 -24.407,-12.203L-18.937,-12.203C-15.29,-12.203 -13.465,-14.4 -13.465,-18.797L-13.465,-100.718L0,-100.718Z" style="fill:rgb(35,31,32);fill-rule:nonzero;"/>
            </g>
            <g transform="matrix(1,0,0,1,0,494.184)">
                <rect x="286.558" y="123.494" width="13.467" height="100.718" style="fill:rgb(35,31,32);"/>
            </g>
            <g transform="matrix(1,0,0,1,352.905,641.242)">
                <path d="M0,53.589L0,60.041C0,71.451 -5.379,77.153 -16.13,77.153L-24.827,77.153C-35.584,77.153 -40.96,71.451 -40.96,60.041L-40.96,-6.45C-40.96,-17.857 -35.584,-23.564 -24.827,-23.564L-16.13,-23.564C-5.379,-23.564 0,-17.857 0,-6.45L0,4.911L-13.465,4.911L-13.465,-5.469C-13.465,-9.395 -15.477,-11.359 -19.499,-11.359L-22.164,-11.359C-25.719,-11.359 -27.493,-9.395 -27.493,-5.469L-27.493,59.059C-27.493,62.986 -25.719,64.95 -22.164,64.95L-18.796,64.95C-15.244,64.95 -13.465,62.986 -13.465,59.059L-13.465,53.589L0,53.589Z" style="fill:rgb(35,31,32);fill-rule:nonzero;"/>
            </g>
            <g transform="matrix(1,0,0,1,0,494.184)">
                <rect x="363.427" y="123.494" width="13.467" height="100.718" style="fill:rgb(35,31,32);"/>
            </g>
            <g transform="matrix(1,0,0,1,412.802,701.844)">
                <path d="M0,-90.758L-9.539,-90.758L-3.087,-107.31L9.257,-107.31L0,-90.758ZM-4.49,4.348L2.383,4.348C5.937,4.348 7.715,2.385 7.715,-1.543L7.715,-66.071C7.715,-69.997 5.702,-71.961 1.683,-71.961L-4.631,-71.961C-8.557,-71.961 -10.521,-69.997 -10.521,-66.071L-10.521,-1.543C-10.521,2.385 -8.512,4.348 -4.49,4.348M-7.715,16.552C-18.565,16.552 -23.986,10.849 -23.986,-0.561L-23.986,-66.911C-23.986,-78.414 -18.61,-84.166 -7.856,-84.166L5.049,-84.166C15.803,-84.166 21.182,-78.414 21.182,-66.911L21.182,-0.561C21.182,10.849 15.756,16.552 4.91,16.552L-7.715,16.552Z" style="fill:rgb(35,31,32);fill-rule:nonzero;"/>
            </g>
            <g transform="matrix(1,0,0,1,473.819,669.718)">
                <path d="M0,-3.362L0,-52.04L13.467,-52.04L13.467,48.678L0,48.678L0,28.619L-14.447,-17.25L-14.447,48.678L-27.914,48.678L-27.914,-52.04L-14.447,-52.04L0,-3.362Z" style="fill:rgb(35,31,32);fill-rule:nonzero;"/>
            </g>
            <g transform="matrix(1,0,0,1,182.323,753.939)">
                <path d="M0,-18.888C0.216,-19.183 0.452,-19.406 0.708,-19.554C0.964,-19.7 1.24,-19.775 1.535,-19.775C2.047,-19.775 2.466,-19.599 2.79,-19.245C3.114,-18.893 3.276,-18.297 3.276,-17.455L3.276,-14.487C3.276,-13.646 3.114,-13.044 2.79,-12.686C2.466,-12.328 2.047,-12.148 1.535,-12.148C1.069,-12.148 0.694,-12.279 0.409,-12.541C0.125,-12.802 -0.085,-13.292 -0.221,-14.008C-0.302,-14.487 -0.461,-14.855 -0.699,-15.118C-1.166,-15.629 -1.817,-16.039 -2.653,-16.346C-3.489,-16.654 -4.328,-16.806 -5.169,-16.806C-6.216,-16.806 -7.178,-16.578 -8.053,-16.124C-8.929,-15.669 -9.702,-14.93 -10.374,-13.907C-11.044,-12.882 -11.38,-11.664 -11.38,-10.256L-11.38,-7.986C-11.38,-6.302 -10.769,-4.898 -9.545,-3.772C-8.322,-2.646 -6.626,-2.083 -4.452,-2.083C-3.156,-2.083 -2.058,-2.259 -1.159,-2.612C-0.636,-2.817 -0.08,-3.22 0.512,-3.823C0.877,-4.188 1.16,-4.422 1.366,-4.531C1.569,-4.64 1.802,-4.693 2.064,-4.693C2.531,-4.693 2.94,-4.517 3.293,-4.163C3.645,-3.811 3.822,-3.396 3.822,-2.918C3.822,-2.442 3.583,-1.929 3.106,-1.383C2.411,-0.587 1.519,0.039 0.427,0.493C-1.042,1.107 -2.662,1.416 -4.436,1.416C-6.506,1.416 -8.372,0.988 -10.032,0.135C-11.375,-0.547 -12.517,-1.625 -13.46,-3.098C-14.405,-4.572 -14.877,-6.177 -14.877,-7.916L-14.877,-10.289C-14.877,-12.109 -14.454,-13.807 -13.606,-15.382C-12.759,-16.956 -11.584,-18.171 -10.084,-19.025C-8.581,-19.878 -6.99,-20.304 -5.307,-20.304C-4.294,-20.304 -3.346,-20.187 -2.466,-19.954C-1.583,-19.721 -0.762,-19.367 0,-18.888" style="fill:rgb(35,31,32);fill-rule:nonzero;"/>
            </g>
            <g transform="matrix(1,0,0,1,200.629,743.275)">
                <path d="M0,2.439L-2.816,-4.488L-5.646,2.439L0,2.439ZM1.451,5.935L-7.047,5.935L-7.899,8.069L-7.047,8.069C-6.205,8.069 -5.604,8.231 -5.246,8.555C-4.888,8.879 -4.708,9.304 -4.708,9.827C-4.708,10.339 -4.888,10.757 -5.246,11.082C-5.604,11.406 -6.205,11.567 -7.047,11.567L-11.755,11.567C-12.598,11.567 -13.196,11.406 -13.554,11.082C-13.914,10.757 -14.092,10.334 -14.092,9.808C-14.092,9.286 -13.904,8.86 -13.529,8.531C-13.154,8.2 -12.535,8.047 -11.67,8.069L-6.177,-5.613L-8.462,-5.613C-9.305,-5.613 -9.903,-5.775 -10.261,-6.099C-10.621,-6.424 -10.8,-6.848 -10.8,-7.371C-10.8,-7.895 -10.621,-8.318 -10.261,-8.642C-9.903,-8.966 -9.305,-9.128 -8.462,-9.128L-0.904,-9.111L6.057,8.069C6.876,8.069 7.416,8.161 7.677,8.342C8.201,8.719 8.462,9.212 8.462,9.827C8.462,10.339 8.286,10.757 7.933,11.082C7.581,11.406 6.984,11.567 6.143,11.567L1.434,11.567C0.592,11.567 -0.009,11.406 -0.367,11.082C-0.725,10.757 -0.904,10.334 -0.904,9.808C-0.904,9.297 -0.725,8.879 -0.367,8.555C-0.009,8.231 0.592,8.069 1.434,8.069L2.286,8.069L1.451,5.935Z" style="fill:rgb(35,31,32);fill-rule:nonzero;"/>
            </g>
            <g transform="matrix(1,0,0,1,216.376,742.763)">
                <path d="M0,3.463L0,8.581L3.583,8.581C4.425,8.581 5.026,8.743 5.384,9.067C5.742,9.392 5.921,9.817 5.921,10.339C5.921,10.852 5.742,11.27 5.384,11.594C5.026,11.918 4.425,12.079 3.583,12.079L-4.043,12.079C-4.884,12.079 -5.485,11.918 -5.843,11.594C-6.202,11.27 -6.38,10.846 -6.38,10.32C-6.38,9.81 -6.199,9.392 -5.834,9.067C-5.47,8.743 -4.874,8.581 -4.043,8.581L-3.497,8.581L-3.497,-5.1L-4.043,-5.1C-4.884,-5.1 -5.485,-5.263 -5.843,-5.587C-6.202,-5.912 -6.38,-6.336 -6.38,-6.858C-6.38,-7.383 -6.202,-7.806 -5.843,-8.13C-5.485,-8.454 -4.884,-8.616 -4.043,-8.616L12.422,-8.599L12.422,-3.259C12.422,-2.429 12.26,-1.834 11.936,-1.476C11.611,-1.118 11.187,-0.937 10.663,-0.937C10.152,-0.937 9.734,-1.115 9.41,-1.467C9.085,-1.821 8.924,-2.417 8.924,-3.259L8.924,-5.1L0,-5.1L0,-0.033L3.071,-0.033C3.071,-0.944 3.157,-1.529 3.327,-1.792C3.68,-2.349 4.182,-2.627 4.83,-2.627C5.341,-2.627 5.759,-2.448 6.083,-2.09C6.407,-1.732 6.57,-1.131 6.57,-0.29L6.57,3.735C6.57,4.578 6.407,5.178 6.083,5.535C5.759,5.894 5.334,6.074 4.812,6.074C4.175,6.074 3.68,5.794 3.327,5.237C3.157,4.977 3.071,4.385 3.071,3.463L0,3.463Z" style="fill:rgb(35,31,32);fill-rule:nonzero;"/>
            </g>
            <g transform="matrix(1,0,0,1,242.362,752.623)">
                <path d="M0,-24.294L-3.839,-21.172C-4.226,-20.865 -4.55,-20.711 -4.812,-20.711C-5.13,-20.711 -5.401,-20.819 -5.622,-21.036C-5.844,-21.252 -5.956,-21.519 -5.956,-21.837C-5.956,-22.201 -5.728,-22.566 -5.273,-22.93L-1.417,-26.053C-1.03,-26.358 -0.706,-26.513 -0.444,-26.513C-0.125,-26.513 0.144,-26.404 0.366,-26.189C0.588,-25.972 0.699,-25.71 0.699,-25.403C0.699,-25.028 0.465,-24.658 0,-24.294M-6.211,-6.414L-6.211,-1.279L2.712,-1.279L2.712,-3.172C2.712,-4.014 2.875,-4.615 3.199,-4.973C3.522,-5.331 3.946,-5.512 4.469,-5.512C4.981,-5.512 5.399,-5.331 5.723,-4.973C6.047,-4.615 6.209,-4.014 6.209,-3.172L6.209,2.219L-10.255,2.219C-11.097,2.219 -11.696,2.058 -12.055,1.733C-12.414,1.409 -12.591,0.985 -12.591,0.46C-12.591,-0.051 -12.41,-0.469 -12.045,-0.793C-11.682,-1.117 -11.085,-1.279 -10.255,-1.279L-9.709,-1.279L-9.709,-14.961L-10.255,-14.961C-11.097,-14.961 -11.696,-15.123 -12.055,-15.447C-12.414,-15.773 -12.591,-16.196 -12.591,-16.719C-12.591,-17.243 -12.414,-17.666 -12.055,-17.99C-11.696,-18.315 -11.097,-18.477 -10.255,-18.477L5.441,-18.459L5.441,-13.137C5.441,-12.306 5.282,-11.712 4.964,-11.354C4.645,-10.995 4.225,-10.816 3.702,-10.816C3.178,-10.816 2.754,-10.991 2.43,-11.345C2.106,-11.697 1.944,-12.294 1.944,-13.137L1.944,-14.961L-6.211,-14.961L-6.211,-9.912L-3.14,-9.912C-3.14,-10.821 -3.055,-11.407 -2.884,-11.67C-2.533,-12.227 -2.031,-12.505 -1.383,-12.505C-0.871,-12.505 -0.452,-12.327 -0.128,-11.968C0.196,-11.609 0.358,-11.01 0.358,-10.168L0.358,-6.141C0.358,-5.379 0.267,-4.867 0.083,-4.606C-0.28,-4.071 -0.769,-3.805 -1.383,-3.805C-2.031,-3.805 -2.533,-4.083 -2.884,-4.64C-3.055,-4.901 -3.14,-5.493 -3.14,-6.414L-6.211,-6.414Z" style="fill:rgb(35,31,32);fill-rule:nonzero;"/>
            </g>
            <g transform="matrix(1,0,0,1,264.706,743.704)">
                <path d="M0,3.306C-1.297,3.91 -1.945,4.825 -1.945,6.053C-1.945,6.701 -1.725,7.213 -1.28,7.589C-0.836,7.964 -0.062,8.152 1.04,8.152C1.746,8.152 2.394,7.982 2.985,7.64L0,3.306ZM4.845,4.195L5.697,1.226L7.489,1.226C8.217,1.226 8.718,1.311 8.99,1.482C9.537,1.835 9.81,2.34 9.81,3C9.81,3.477 9.665,3.878 9.375,4.202C9.084,4.527 8.734,4.701 8.325,4.723C8.042,5.941 7.682,6.912 7.25,7.64C8.172,7.64 8.763,7.725 9.024,7.897C9.582,8.238 9.86,8.738 9.86,9.398C9.86,9.91 9.682,10.328 9.323,10.653C8.964,10.977 8.366,11.138 7.524,11.138L5.441,11.138L5.032,10.592C4.521,10.955 4.031,11.206 3.565,11.342C2.871,11.546 2.029,11.651 1.04,11.651C-1.019,11.651 -2.613,11.122 -3.745,10.073C-4.878,9.019 -5.443,7.686 -5.443,6.072C-5.443,4.968 -5.161,3.912 -4.6,2.907C-4.035,1.899 -3.174,1.055 -2.014,0.372C-2.514,-0.458 -2.841,-1.102 -2.995,-1.564C-3.149,-2.025 -3.225,-2.516 -3.225,-3.04C-3.225,-4.451 -2.691,-5.686 -1.622,-6.751C-0.553,-7.814 0.716,-8.345 2.182,-8.345C2.569,-8.345 2.969,-8.298 3.376,-8.201C3.787,-8.104 4.208,-7.953 4.639,-7.749C5.049,-7.93 5.356,-8.023 5.562,-8.023C6.04,-8.023 6.449,-7.848 6.79,-7.502C7.131,-7.154 7.302,-6.743 7.302,-6.264C7.302,-5.867 7.208,-5.54 7.02,-5.284C6.832,-5.028 6.454,-4.746 5.886,-4.439L4.418,-3.653C3.86,-4.155 3.412,-4.49 3.071,-4.661C2.81,-4.785 2.508,-4.847 2.167,-4.847C1.631,-4.847 1.182,-4.67 0.818,-4.31C0.455,-3.953 0.272,-3.54 0.272,-3.073C0.272,-2.676 0.608,-1.987 1.278,-1.01L4.845,4.195Z" style="fill:rgb(35,31,32);fill-rule:nonzero;"/>
            </g>
            <g transform="matrix(1,0,0,1,300.217,751.839)">
                <path d="M0,-14.176L0,-3.6C0,-2.269 -0.223,-1.211 -0.664,-0.426C-1.346,0.792 -2.334,1.753 -3.625,2.458C-4.916,3.164 -6.272,3.516 -7.694,3.516C-9.525,3.516 -12.021,2.743 -15.184,1.196L-15.184,-4.554C-15.184,-5.396 -15.021,-5.996 -14.697,-6.355C-14.374,-6.712 -13.95,-6.893 -13.427,-6.893C-12.915,-6.893 -12.497,-6.712 -12.173,-6.355C-11.849,-5.996 -11.687,-5.396 -11.687,-4.554L-11.687,-1.125C-10.082,-0.363 -8.713,0.017 -7.574,0.017C-6.973,0.017 -6.346,-0.121 -5.698,-0.4C-5.049,-0.678 -4.561,-1.011 -4.231,-1.398C-3.902,-1.785 -3.686,-2.166 -3.583,-2.541C-3.526,-2.746 -3.497,-3.234 -3.497,-4.008L-3.497,-14.176L-7.747,-14.176C-8.587,-14.176 -9.186,-14.338 -9.545,-14.662C-9.903,-14.988 -10.082,-15.411 -10.082,-15.934C-10.082,-16.458 -9.903,-16.881 -9.545,-17.205C-9.186,-17.53 -8.587,-17.692 -7.747,-17.692L2.049,-17.674C2.888,-17.674 3.488,-17.515 3.847,-17.197C4.207,-16.878 4.385,-16.458 4.385,-15.934C4.385,-15.411 4.207,-14.988 3.847,-14.662C3.488,-14.338 2.888,-14.176 2.049,-14.176L0,-14.176Z" style="fill:rgb(35,31,32);fill-rule:nonzero;"/>
            </g>
            <g transform="matrix(1,0,0,1,317.431,743.275)">
                <path d="M0,2.439L-2.814,-4.488L-5.645,2.439L0,2.439ZM1.45,5.935L-7.046,5.935L-7.897,8.069L-7.046,8.069C-6.204,8.069 -5.603,8.231 -5.245,8.555C-4.887,8.879 -4.707,9.304 -4.707,9.827C-4.707,10.339 -4.887,10.757 -5.245,11.082C-5.603,11.406 -6.204,11.567 -7.046,11.567L-11.755,11.567C-12.597,11.567 -13.195,11.406 -13.553,11.082C-13.911,10.757 -14.091,10.334 -14.091,9.808C-14.091,9.286 -13.903,8.86 -13.526,8.531C-13.153,8.2 -12.534,8.047 -11.669,8.069L-6.175,-5.613L-8.462,-5.613C-9.304,-5.613 -9.902,-5.775 -10.263,-6.099C-10.621,-6.424 -10.799,-6.848 -10.799,-7.371C-10.799,-7.895 -10.621,-8.318 -10.263,-8.642C-9.902,-8.966 -9.304,-9.128 -8.462,-9.128L-0.901,-9.111L6.058,8.069C6.876,8.069 7.417,8.161 7.679,8.342C8.201,8.719 8.465,9.212 8.465,9.827C8.465,10.339 8.287,10.757 7.935,11.082C7.582,11.406 6.985,11.567 6.145,11.567L1.435,11.567C0.594,11.567 -0.008,11.406 -0.366,11.082C-0.724,10.757 -0.901,10.334 -0.901,9.808C-0.901,9.297 -0.724,8.879 -0.366,8.555C-0.008,8.231 0.594,8.069 1.435,8.069L2.289,8.069L1.45,5.935Z" style="fill:rgb(35,31,32);fill-rule:nonzero;"/>
            </g>
            <g transform="matrix(1,0,0,1,331.969,745.543)">
                <path d="M0,-2.097L2.729,-2.097C3.743,-2.097 4.645,-2.251 5.441,-2.558C6.511,-2.967 7.231,-3.399 7.601,-3.856C7.969,-4.309 8.154,-4.759 8.154,-5.203C8.154,-5.862 7.802,-6.475 7.096,-7.036C6.391,-7.6 5.363,-7.88 4.01,-7.88L0,-7.88L0,-2.097ZM0,1.4L0,5.801L1.263,5.801C2.104,5.801 2.705,5.964 3.061,6.288C3.419,6.612 3.599,7.037 3.599,7.559C3.599,8.072 3.419,8.49 3.061,8.814C2.705,9.138 2.104,9.299 1.263,9.299L-4.043,9.299C-4.887,9.299 -5.485,9.138 -5.843,8.814C-6.201,8.49 -6.382,8.066 -6.382,7.541C-6.382,7.03 -6.198,6.612 -5.835,6.288C-5.472,5.964 -4.874,5.801 -4.043,5.801L-3.496,5.801L-3.496,-7.88L-4.043,-7.88C-4.887,-7.88 -5.485,-8.042 -5.843,-8.367C-6.201,-8.692 -6.382,-9.116 -6.382,-9.638C-6.382,-10.162 -6.201,-10.585 -5.843,-10.91C-5.485,-11.234 -4.887,-11.396 -4.043,-11.396L3.873,-11.378C6.341,-11.378 8.254,-10.768 9.612,-9.545C10.972,-8.323 11.651,-6.835 11.651,-5.084C11.651,-3.992 11.335,-2.998 10.697,-2.106C10.06,-1.214 9.101,-0.419 7.814,0.273C8.554,0.922 9.344,1.753 10.185,2.765C10.707,3.413 11.413,4.426 12.302,5.801C13.188,5.801 13.773,5.893 14.058,6.075C14.57,6.427 14.826,6.922 14.826,7.559C14.826,8.072 14.648,8.49 14.296,8.814C13.943,9.138 13.347,9.299 12.506,9.299L10.509,9.299C7.676,4.92 5.326,2.288 3.463,1.4L0,1.4Z" style="fill:rgb(35,31,32);fill-rule:nonzero;"/>
            </g>
            <g transform="matrix(1,0,0,1,362.867,744.486)">
                <path d="M0,0.018C0,-2.11 -0.643,-3.871 -1.929,-5.264C-3.214,-6.657 -4.675,-7.353 -6.313,-7.353C-7.939,-7.353 -9.395,-6.654 -10.681,-5.254C-11.967,-3.855 -12.609,-2.099 -12.609,0.018C-12.609,2.132 -11.967,3.887 -10.681,5.28C-9.395,6.674 -7.939,7.37 -6.313,7.37C-4.675,7.37 -3.214,6.676 -1.929,5.289C-0.643,3.901 0,2.144 0,0.018M3.497,0.018C3.497,3.122 2.509,5.707 0.536,7.772C-1.437,9.835 -3.722,10.869 -6.313,10.869C-8.645,10.869 -10.749,10.009 -12.625,8.291C-14.946,6.164 -16.106,3.406 -16.106,0.018C-16.106,-3.372 -14.946,-6.136 -12.625,-8.275C-10.749,-9.992 -8.645,-10.851 -6.313,-10.851C-3.722,-10.851 -1.437,-9.819 0.536,-7.754C2.509,-5.69 3.497,-3.1 3.497,0.018" style="fill:rgb(35,31,32);fill-rule:nonzero;"/>
            </g>
            <g transform="matrix(1,0,0,1,375.49,744.742)">
                <path d="M0,-0.496L3.243,-0.496C4.767,-0.496 5.974,-0.84 6.868,-1.527C7.762,-2.216 8.209,-3.043 8.209,-4.01C8.209,-4.829 7.846,-5.546 7.124,-6.159C6.402,-6.774 5.37,-7.08 4.027,-7.08L0,-7.08L0,-0.496ZM0,3.002L0,6.602L3.533,6.602C4.375,6.602 4.976,6.764 5.331,7.088C5.691,7.412 5.869,7.837 5.869,8.359C5.869,8.872 5.691,9.29 5.331,9.614C4.976,9.939 4.375,10.1 3.533,10.1L-4.043,10.1C-4.885,10.1 -5.483,9.939 -5.844,9.614C-6.202,9.29 -6.38,8.866 -6.38,8.341C-6.38,7.83 -6.199,7.412 -5.833,7.088C-5.47,6.764 -4.871,6.602 -4.043,6.602L-3.497,6.602L-3.497,-7.08L-4.043,-7.08C-4.885,-7.08 -5.483,-7.242 -5.844,-7.566C-6.202,-7.892 -6.38,-8.315 -6.38,-8.838C-6.38,-9.362 -6.202,-9.785 -5.844,-10.109C-5.483,-10.434 -4.885,-10.596 -4.043,-10.596L4.009,-10.578C6.377,-10.578 8.25,-9.933 9.633,-8.642C11.016,-7.35 11.705,-5.779 11.705,-3.925C11.705,-2.901 11.473,-1.934 11.005,-1.025C10.652,-0.343 10.064,0.331 9.241,0.998C8.415,1.663 7.573,2.163 6.714,2.499C5.856,2.835 4.72,3.002 3.311,3.002L0,3.002Z" style="fill:rgb(35,31,32);fill-rule:nonzero;"/>
            </g>
            <g transform="matrix(1,0,0,1,394.89,742.779)">
                <path d="M0,3.43L0,8.565L8.925,8.565L8.925,6.672C8.925,5.83 9.087,5.229 9.408,4.871C9.734,4.513 10.158,4.332 10.681,4.332C11.192,4.332 11.611,4.513 11.935,4.871C12.259,5.229 12.421,5.83 12.421,6.672L12.421,12.063L-4.043,12.063C-4.885,12.063 -5.483,11.902 -5.844,11.577C-6.202,11.253 -6.38,10.829 -6.38,10.304C-6.38,9.793 -6.199,9.375 -5.836,9.051C-5.47,8.727 -4.874,8.565 -4.043,8.565L-3.497,8.565L-3.497,-5.117L-4.043,-5.117C-4.885,-5.117 -5.483,-5.279 -5.844,-5.603C-6.202,-5.928 -6.38,-6.352 -6.38,-6.875C-6.38,-7.399 -6.202,-7.822 -5.844,-8.146C-5.483,-8.47 -4.885,-8.633 -4.043,-8.633L11.652,-8.615L11.652,-3.293C11.652,-2.462 11.493,-1.868 11.175,-1.509C10.855,-1.151 10.435,-0.972 9.912,-0.972C9.39,-0.972 8.966,-1.147 8.643,-1.501C8.318,-1.853 8.156,-2.45 8.156,-3.293L8.156,-5.117L0,-5.117L0,-0.068L3.07,-0.068C3.07,-0.977 3.156,-1.563 3.326,-1.826C3.68,-2.382 4.181,-2.661 4.829,-2.661C5.342,-2.661 5.76,-2.483 6.081,-2.124C6.407,-1.765 6.569,-1.166 6.569,-0.324L6.569,3.703C6.569,4.465 6.479,4.977 6.295,5.239C5.932,5.773 5.443,6.039 4.829,6.039C4.181,6.039 3.68,5.761 3.326,5.204C3.156,4.943 3.07,4.351 3.07,3.43L0,3.43Z" style="fill:rgb(35,31,32);fill-rule:nonzero;"/>
            </g>
            <g transform="matrix(1,0,0,1,414.338,735.035)">
                <path d="M0,18.919C-0.306,19.283 -0.554,19.517 -0.742,19.619C-0.93,19.721 -1.16,19.773 -1.432,19.773C-1.968,19.773 -2.396,19.593 -2.721,19.234C-3.044,18.877 -3.206,18.282 -3.206,17.452L-3.206,15.098C-3.206,14.256 -3.044,13.656 -2.721,13.297C-2.396,12.94 -1.968,12.76 -1.432,12.76C-1.021,12.76 -0.679,12.868 -0.399,13.084C-0.12,13.301 0.092,13.662 0.241,14.167C0.387,14.675 0.541,15.018 0.701,15.199C1.03,15.553 1.615,15.91 2.46,16.275C3.299,16.64 4.221,16.82 5.222,16.82C6.779,16.82 8.06,16.457 9.061,15.729C9.698,15.286 10.015,14.74 10.015,14.092C10.015,13.658 9.863,13.253 9.555,12.871C9.249,12.489 8.747,12.175 8.052,11.924C7.6,11.754 6.581,11.52 5,11.225C3.09,10.872 1.645,10.446 0.667,9.944C-0.311,9.445 -1.084,8.739 -1.654,7.83C-2.224,6.92 -2.506,5.936 -2.506,4.878C-2.506,3.205 -1.809,1.742 -0.407,0.485C0.991,-0.77 2.81,-1.4 5.052,-1.4C5.951,-1.4 6.782,-1.302 7.551,-1.102C8.318,-0.902 9.017,-0.599 9.642,-0.189C10.096,-0.632 10.551,-0.854 11.005,-0.854C11.518,-0.854 11.936,-0.676 12.26,-0.317C12.584,0.042 12.746,0.635 12.746,1.466L12.746,4.093C12.746,4.935 12.584,5.535 12.26,5.894C11.936,6.251 11.518,6.431 11.005,6.431C10.574,6.431 10.198,6.3 9.879,6.037C9.631,5.845 9.442,5.458 9.317,4.878C9.191,4.298 9.032,3.884 8.839,3.633C8.51,3.2 8.013,2.837 7.354,2.54C6.696,2.245 5.933,2.098 5.067,2.098C3.806,2.098 2.807,2.391 2.075,2.976C1.341,3.563 0.973,4.173 0.973,4.811C0.973,5.242 1.124,5.661 1.425,6.064C1.728,6.469 2.167,6.783 2.747,7.011C3.134,7.17 4.224,7.426 6.017,7.777C7.807,8.131 9.184,8.518 10.146,8.938C11.104,9.358 11.904,10.02 12.542,10.918C13.177,11.816 13.496,12.886 13.496,14.126C13.496,15.855 12.887,17.235 11.672,18.271C10.057,19.636 7.997,20.319 5.496,20.319C4.529,20.319 3.586,20.202 2.671,19.969C1.754,19.735 0.865,19.387 0,18.919" style="fill:rgb(35,31,32);fill-rule:nonzero;"/>
            </g>
        </g>
    </g>
</svg>
