<?xml version="1.0" encoding="UTF-8"?>
<svg width="512pt" height="512pt" version="1.1" viewBox="0 0 512 512" xmlns="http://www.w3.org/2000/svg">
 <g>
  <rect width="512" height="512"/>
  <path d="m155.24 263.56c-31.992 0-57.938 25.945-57.938 57.938v35.266c0 31.992 25.945 57.938 57.938 57.938 31.992 0 57.938-25.945 57.938-57.938v-35.266c0-31.992-25.945-57.938-57.938-57.938zm25.191 75.57h-25.191v50.383h-25.191v-50.383h25.191v-50.383h25.191z" fill="#fff"/>
  <path d="m306.38 155.24c0-31.992-25.949-57.938-57.941-57.938h-35.266c-31.992 0-57.938 25.945-57.938 57.938 0 31.992 25.945 57.938 57.938 57.938h35.266c31.992 0 57.941-25.945 57.941-57.938zm-25.191 25.191h-50.383v-25.191h-50.379v-25.191h50.383v25.191h50.383z" fill="#fff"/>
  <path d="m397.57 258.02c-22.672-22.672-59.199-22.672-81.867 0l-24.938 24.938c-22.672 22.672-22.672 59.199 0 81.867 22.672 22.672 59.199 22.672 81.867 0l24.938-24.938c22.672-22.668 22.672-59.195 0-81.867zm-35.52 71.289-17.883-17.887-35.52 35.52-17.887-17.887 35.52-35.52 17.887 17.887 35.52-35.52 17.887 17.887z" fill="#fff"/>
 </g>
</svg>
